<?xml version="1.0" encoding="utf-8"?>
<!-- Uploaded to: SVG Repo, www.svgrepo.com, Generator: SVG Repo Mixer Tools -->
<svg fill="#000000" width="1.8rem" height="1.8rem" viewBox="0 0 32 32" version="1.1" xmlns="http://www.w3.org/2000/svg">
<title>brightness</title>
<path d="M0 16q0 0.832 0.576 1.44t1.44 0.576h1.984q0.832 0 1.408-0.576t0.608-1.44-0.608-1.408-1.408-0.576h-1.984q-0.832 0-1.44 0.576t-0.576 1.408zM4.096 25.888q0 0.832 0.608 1.44t1.408 0.576 1.408-0.576l1.408-1.408q0.608-0.608 0.608-1.408t-0.608-1.408-1.408-0.608-1.408 0.608l-1.408 1.408q-0.608 0.576-0.608 1.376zM4.096 6.112q0 0.832 0.608 1.408l1.408 1.408q0.576 0.576 1.408 0.576t1.408-0.576 0.608-1.408-0.608-1.408l-1.408-1.408q-0.576-0.608-1.408-0.608t-1.408 0.608-0.608 1.408zM8 16q0 3.328 2.336 5.664t5.664 2.336 5.664-2.336 2.336-5.664-2.336-5.632-5.664-2.368-5.664 2.368-2.336 5.632zM12 16q0-1.632 1.184-2.816t2.816-1.184 2.816 1.184 1.184 2.816-1.184 2.848-2.816 1.152-2.816-1.152-1.184-2.848zM14.016 28v2.016q0 0.832 0.576 1.408t1.408 0.576 1.408-0.576 0.608-1.408v-2.016q0-0.832-0.608-1.408t-1.408-0.576-1.408 0.576-0.576 1.408zM14.016 4q0 0.832 0.576 1.44t1.408 0.576 1.408-0.576 0.608-1.44v-1.984q0-0.832-0.608-1.408t-1.408-0.608-1.408 0.608-0.576 1.408v1.984zM22.496 24.512q0 0.8 0.576 1.408l1.408 1.408q0.576 0.576 1.408 0.576t1.44-0.576 0.576-1.44-0.576-1.376l-1.408-1.408q-0.608-0.608-1.44-0.608t-1.408 0.608-0.576 1.408zM22.496 7.52q0 0.832 0.576 1.408t1.408 0.576 1.44-0.576l1.408-1.408q0.576-0.576 0.576-1.408t-0.576-1.408-1.44-0.608-1.408 0.608l-1.408 1.408q-0.576 0.576-0.576 1.408zM26.016 16q0 0.832 0.576 1.44t1.408 0.576h2.016q0.8 0 1.408-0.576t0.576-1.44-0.576-1.408-1.408-0.576h-2.016q-0.832 0-1.408 0.576t-0.576 1.408z"></path>
</svg>